<svg xmlns="http://www.w3.org/2000/svg" viewBox="0 0 238.46 55.1"><defs><style>.cls-1{fill:#ffc757;}</style></defs><g id="Capa_2" data-name="Capa 2"><g id="OBJECTS"><path d="M91.92,23.18V.45h5.29l9.42,15.46h-2.8L113,.45h5.29l.06,22.73h-5.9l-.07-13.73h1l-6.85,11.49h-2.86l-7-11.49h1.23V23.18Z"/><path d="M134.35,23.63a14,14,0,0,1-5-.88,11.89,11.89,0,0,1-4-2.48,11.38,11.38,0,0,1-2.65-3.75,11.5,11.5,0,0,1-.94-4.7,11.55,11.55,0,0,1,.94-4.71,11.38,11.38,0,0,1,2.65-3.75,11.89,11.89,0,0,1,4-2.48,14,14,0,0,1,5-.88,13.82,13.82,0,0,1,5,.88A11.73,11.73,0,0,1,146,7.11a11.56,11.56,0,0,1,.95,4.71,11.64,11.64,0,0,1-.95,4.72,11.46,11.46,0,0,1-2.65,3.75,11.81,11.81,0,0,1-4,2.46A13.82,13.82,0,0,1,134.35,23.63Zm0-5.32a6.2,6.2,0,0,0,2.41-.46,5.54,5.54,0,0,0,2-1.31,6.13,6.13,0,0,0,1.3-2.06,7.32,7.32,0,0,0,.47-2.66A7.28,7.28,0,0,0,140,9.14a6.29,6.29,0,0,0-1.3-2.05,5.54,5.54,0,0,0-2-1.31,6.57,6.57,0,0,0-4.83,0,5.54,5.54,0,0,0-2,1.31,6.46,6.46,0,0,0-1.3,2.05,7.28,7.28,0,0,0-.47,2.68,7.32,7.32,0,0,0,.47,2.66,6.29,6.29,0,0,0,1.3,2.06,5.54,5.54,0,0,0,2,1.31A6.25,6.25,0,0,0,134.35,18.31Z"/><path d="M150.35,23.18V.45h6.36V23.18Zm5.74-5-.35-7.21L165.51.45h7.08L162.85,11l-3.57,3.74Zm9.52,5-7.4-9.38,4.18-4.48,10.68,13.86Z"/><path d="M171,23.18,181,.45h6.33l10.07,22.73H190.7L182.84,3.6h2.54l-7.86,19.58Zm5.49-4.42L178.1,14h11.11l1.65,4.74Z"/><path d="M91.92,54.64V31.92h10.74a14.94,14.94,0,0,1,6.63,1.4,10.78,10.78,0,0,1,4.46,3.92,11.07,11.07,0,0,1,1.61,6,11,11,0,0,1-1.61,6,10.71,10.71,0,0,1-4.46,4,14.94,14.94,0,0,1-6.63,1.39Zm6.43-5.13h4.05a7.44,7.44,0,0,0,3.4-.73,5.28,5.28,0,0,0,2.25-2.14,7.39,7.39,0,0,0,0-6.73,5.37,5.37,0,0,0-2.25-2.13,7.44,7.44,0,0,0-3.4-.73H98.35Z"/><path d="M125.09,49.68H137v5H118.73V31.92h17.82v5H125.09Zm-.45-9h10.55v4.8H124.64Z"/><path d="M151.88,55.1a14.17,14.17,0,0,1-5-.86,11.64,11.64,0,0,1-4-2.45A11.5,11.5,0,0,1,140.32,48a12.5,12.5,0,0,1,0-9.51,11.5,11.5,0,0,1,2.61-3.75,11.64,11.64,0,0,1,4-2.45,14,14,0,0,1,5-.86,13.7,13.7,0,0,1,5.63,1.1,11,11,0,0,1,4.14,3.18l-4.09,3.7a8.38,8.38,0,0,0-2.42-2,6.37,6.37,0,0,0-2.94-.68,7,7,0,0,0-2.56.45,5.63,5.63,0,0,0-2,1.32,6.13,6.13,0,0,0-1.3,2.06,7.76,7.76,0,0,0,0,5.32,6,6,0,0,0,1.3,2.06,5.38,5.38,0,0,0,2,1.32,7,7,0,0,0,2.56.45,6.24,6.24,0,0,0,2.94-.68,8.06,8.06,0,0,0,2.42-2l4.09,3.7A11.2,11.2,0,0,1,157.51,54,13.7,13.7,0,0,1,151.88,55.1Z"/><path d="M175.47,55.1a14,14,0,0,1-5-.88,12,12,0,0,1-4-2.48,11.66,11.66,0,0,1,0-16.91,12.05,12.05,0,0,1,4-2.49,15,15,0,0,1,10.08,0,11.73,11.73,0,0,1,6.62,6.24,11.32,11.32,0,0,1,1,4.7,11.45,11.45,0,0,1-1,4.72,11.58,11.58,0,0,1-2.64,3.75,11.78,11.78,0,0,1-4,2.47A13.87,13.87,0,0,1,175.47,55.1Zm0-5.33a6.43,6.43,0,0,0,2.42-.45,5.44,5.44,0,0,0,2-1.32,6.19,6.19,0,0,0,1.3-2.06,7.82,7.82,0,0,0,0-5.34,6.3,6.3,0,0,0-1.3-2,5.71,5.71,0,0,0-2-1.32,6.73,6.73,0,0,0-4.84,0,5.76,5.76,0,0,0-1.94,1.32,6.14,6.14,0,0,0-1.3,2,7.82,7.82,0,0,0,0,5.34,6,6,0,0,0,1.3,2.06,5.49,5.49,0,0,0,1.94,1.32A6.47,6.47,0,0,0,175.47,49.77Z"/><path d="M191.48,54.64V31.92h10.38a13.18,13.18,0,0,1,5.38,1,7.94,7.94,0,0,1,3.49,2.9,8.11,8.11,0,0,1,1.23,4.5,7.54,7.54,0,0,1-4.72,7.29,13.35,13.35,0,0,1-5.38,1h-6.81l2.85-2.7v8.73Zm6.42-8-2.85-3h6.42a4.4,4.4,0,0,0,3-.88,3.06,3.06,0,0,0,1-2.43,3.14,3.14,0,0,0-1-2.47,4.45,4.45,0,0,0-3-.88h-6.42L197.9,34Zm7.63,8-5.65-8.27h6.85l5.68,8.27Z"/><path d="M223.48,55.1a20.28,20.28,0,0,1-5.37-.7,14.18,14.18,0,0,1-4.2-1.8L216,47.86a15,15,0,0,0,3.52,1.61,13.17,13.17,0,0,0,4,.63,7.79,7.79,0,0,0,2.14-.24,2.67,2.67,0,0,0,1.18-.65,1.37,1.37,0,0,0,.38-1A1.39,1.39,0,0,0,226.5,47a6,6,0,0,0-1.85-.75c-.76-.2-1.59-.39-2.51-.59a25.64,25.64,0,0,1-2.76-.74,11.24,11.24,0,0,1-2.52-1.19A5.73,5.73,0,0,1,215,41.84a5.81,5.81,0,0,1-.71-3,6.45,6.45,0,0,1,1.12-3.7,7.7,7.7,0,0,1,3.36-2.66,13.62,13.62,0,0,1,5.58-1,19.1,19.1,0,0,1,4.4.5,14,14,0,0,1,3.84,1.48l-2,4.77a15.75,15.75,0,0,0-3.22-1.32,11.66,11.66,0,0,0-3.08-.43,7,7,0,0,0-2.15.27,2.44,2.44,0,0,0-1.16.73,1.64,1.64,0,0,0-.36,1,1.35,1.35,0,0,0,.7,1.19,6.11,6.11,0,0,0,1.85.71l2.53.57a28.12,28.12,0,0,1,2.76.73A10.14,10.14,0,0,1,231,42.88a5.61,5.61,0,0,1,1.84,1.91,5.83,5.83,0,0,1,.7,3,6.46,6.46,0,0,1-1.12,3.65,7.73,7.73,0,0,1-3.35,2.68A13.61,13.61,0,0,1,223.48,55.1Z"/><path d="M43,20.2h14.8L53.5,5.33A6.71,6.71,0,0,0,47.06.48H6.7A6.7,6.7,0,0,0,.26,9L9,39.34H43Z"/><polygon points="81.18 25.05 83.83 19.77 42.1 19.77 42.1 25.05 81.18 25.05"/><polygon points="69.11 54.64 78.86 24.27 73.08 22.41 62.73 54.64 69.11 54.64"/><polygon points="35.66 43.34 32.03 54.64 38.41 54.64 42.04 43.34 35.66 43.34"/><polygon points="10.03 43.34 6.4 54.64 12.78 54.64 16.4 43.34 10.03 43.34"/><rect x="8.94" y="38.96" width="61.39" height="6.41"/><path class="cls-1" d="M66,36.6H44.7V30.19H59.54A6.41,6.41,0,0,1,66,36.6Z"/><path d="M236.42,31.25a2.08,2.08,0,0,1-.8-.16,2,2,0,0,1-.65-.43,2.37,2.37,0,0,1-.43-.65,2.11,2.11,0,0,1-.15-.8,1.89,1.89,0,0,1,.16-.79,1.8,1.8,0,0,1,.43-.65,2,2,0,0,1,.65-.44,2.11,2.11,0,0,1,.8-.15,2.16,2.16,0,0,1,.81.15,1.85,1.85,0,0,1,.64.43,2,2,0,0,1,.43.64,2.11,2.11,0,0,1,.15.8,1.91,1.91,0,0,1-.16.8,1.93,1.93,0,0,1-.43.66,2,2,0,0,1-.65.43A2.11,2.11,0,0,1,236.42,31.25Zm0-.38a1.69,1.69,0,0,0,1.18-.48,1.55,1.55,0,0,0,.34-.53,1.65,1.65,0,0,0,.13-.66,1.62,1.62,0,0,0-.13-.66,1.51,1.51,0,0,0-.34-.52,1.54,1.54,0,0,0-.51-.35,1.76,1.76,0,0,0-.66-.12,1.69,1.69,0,0,0-1.18.48,1.55,1.55,0,0,0-.34.53,1.75,1.75,0,0,0-.12.65,1.8,1.8,0,0,0,.12.66,1.51,1.51,0,0,0,.34.52,1.54,1.54,0,0,0,.52.35A1.57,1.57,0,0,0,236.42,30.87Zm-.88-.54V28.09h1a1,1,0,0,1,.71.22.68.68,0,0,1,.26.58.69.69,0,0,1-.26.59,1.09,1.09,0,0,1-.71.2h-.38v.65Zm.6-1.1h.34a.48.48,0,0,0,.31-.09.28.28,0,0,0,.11-.25.3.3,0,0,0-.11-.26.48.48,0,0,0-.31-.09h-.34Zm.82,1.1-.55-.85h.6l.55.85Z"/></g></g></svg>